<svg width="16" height="17" viewBox="0 0 16 17" fill="none" xmlns="http://www.w3.org/2000/svg">
<g clip-path="url(#clip0_128_234)">
<path d="M8.13897 4.68159C6.02383 4.68159 4.31774 6.38491 4.31774 8.49663C4.31774 10.6083 6.02383 12.3117 8.13897 12.3117C10.2541 12.3117 11.9602 10.6083 11.9602 8.49663C11.9602 6.38491 10.2541 4.68159 8.13897 4.68159ZM8.13897 10.9769C6.77211 10.9769 5.65467 9.8646 5.65467 8.49663C5.65467 7.12866 6.76878 6.01636 8.13897 6.01636C9.50915 6.01636 10.6233 7.12866 10.6233 8.49663C10.6233 9.8646 9.50583 10.9769 8.13897 10.9769ZM13.0078 4.52554C13.0078 5.02026 12.6087 5.41538 12.1165 5.41538C11.621 5.41538 11.2252 5.01694 11.2252 4.52554C11.2252 4.03413 11.6243 3.63569 12.1165 3.63569C12.6087 3.63569 13.0078 4.03413 13.0078 4.52554ZM15.5386 5.42866C15.4821 4.23667 15.2094 3.18081 14.3347 2.31089C13.4634 1.44097 12.4058 1.1687 11.2119 1.10894C9.9814 1.03921 6.29321 1.03921 5.0627 1.10894C3.8721 1.16538 2.81453 1.43765 1.93987 2.30757C1.06522 3.17749 0.795836 4.23335 0.735973 5.42534C0.666134 6.65386 0.666134 10.3361 0.735973 11.5646C0.79251 12.7566 1.06522 13.8124 1.93987 14.6824C2.81453 15.5523 3.86878 15.8246 5.0627 15.8843C6.29321 15.9541 9.9814 15.9541 11.2119 15.8843C12.4058 15.8279 13.4634 15.5556 14.3347 14.6824C15.2061 13.8124 15.4788 12.7566 15.5386 11.5646C15.6085 10.3361 15.6085 6.65718 15.5386 5.42866ZM13.949 12.8828C13.6895 13.5335 13.1874 14.0349 12.5322 14.2972C11.5511 14.6857 9.22314 14.596 8.13897 14.596C7.05479 14.596 4.72348 14.6824 3.74573 14.2972C3.09389 14.0382 2.59171 13.5369 2.32898 12.8828C1.93987 11.9033 2.02967 9.57905 2.02967 8.49663C2.02967 7.41421 1.9432 5.08667 2.32898 4.1105C2.58838 3.45972 3.09056 2.95835 3.74573 2.69604C4.7268 2.30757 7.05479 2.39722 8.13897 2.39722C9.22314 2.39722 11.5545 2.31089 12.5322 2.69604C13.184 2.95503 13.6862 3.4564 13.949 4.1105C14.3381 5.08999 14.2483 7.41421 14.2483 8.49663C14.2483 9.57905 14.3381 11.9066 13.949 12.8828Z" fill="black"/>
</g>
<defs>
<clipPath id="clip0_128_234">
<rect width="14.8991" height="17" fill="white" transform="translate(0.685547)"/>
</clipPath>
</defs>
</svg>
